<?xml version="1.0" encoding="UTF-8" standalone="no"?>
<!DOCTYPE svg PUBLIC "-//W3C//DTD SVG 1.1//EN" "http://www.w3.org/Graphics/SVG/1.1/DTD/svg11.dtd">
<svg width="100%" height="100%" viewBox="0 0 895 895" version="1.1" xmlns="http://www.w3.org/2000/svg" xmlns:xlink="http://www.w3.org/1999/xlink" xml:space="preserve" xmlns:serif="http://www.serif.com/" style="fill-rule:evenodd;clip-rule:evenodd;stroke-linejoin:round;stroke-miterlimit:2;">
    <g transform="matrix(1,0,0,1,-118.013,-87.8685)">
        <g transform="matrix(1.79411,0,0,1.79411,-810.672,-641.379)">
            <path d="M767.038,406.467C904.691,406.467 1016.45,518.223 1016.45,655.876C1016.45,793.528 904.691,905.285 767.038,905.285C629.386,905.285 517.629,793.528 517.629,655.876C517.629,518.223 629.386,406.467 767.038,406.467ZM747.401,748.164C695.349,749.743 641.554,764.407 597.741,804.888C647.655,758.77 717.159,754.264 775.283,757.44C863.225,762.247 937.39,806.173 937.39,806.173C939.597,807.26 945.319,792.735 943.111,791.647C943.111,791.647 865.567,753.443 775.77,748.535C774.032,748.441 772.29,748.358 770.544,748.289L779.128,690.301L760.123,694.644L762.554,633.561L743.648,641.253L741.753,599.157L756.66,596.248L773.516,613.756L781.133,606.918L805.547,624.214L797.733,604L836.137,632.419L810.895,589.163L799.124,577.287L810.507,574.107L792.074,554.242L769.954,551.507L760.203,537.4L734.17,535.1L710.577,524.282L716.504,519.325L711.663,512.948L719.6,500.611L708.28,501.527L721.49,482.372L698.107,489.884L692.165,495.101L689.14,487.025L679.076,494.934L679.623,508.784L672.147,512.223L673.044,524.618L670.261,523.179L652.164,527.699L634.316,525.169L627.609,533.831L612.443,532.247L599.774,543.685L607.571,547.828L599.483,554.545L582.107,581.854L608.479,567.431L603.088,580.835L619.852,572.225L625.061,578.413L636.644,568.431L645.961,572.55L627.507,586.557L626.418,603.807L608.977,618.011L603.439,644.827L614.76,641.424L610.81,657.858L611.438,708.251L629.609,663.428L633.294,684.84L645.241,657.001L655.225,658.736L660.626,634.775L682.521,626.247L676.504,593.843L685.582,596.026L687.609,585.889L704.009,599.086L685.737,609.434L725.322,648.71L704.614,657.135L739.672,699.317L718.53,704.149L747.401,748.164ZM719.249,572.914L722.2,569.911L727.991,585.504L721.405,589.234L719.249,572.914Z" style="fill:white;"/>
        </g>
    </g>
</svg>
